<?xml version="1.0" encoding="UTF-8"?>
<svg xmlns="http://www.w3.org/2000/svg" width="28" height="27" viewBox="0 0 28 27" fill="none">
  <g clip-path="url(#clip0_1_2418)">
    <path d="M9.55297 16.7707C9.74331 17.194 10.0484 17.243 10.1793 17.243H10.1874C10.3135 17.241 10.626 17.189 10.8057 16.7507L11.9932 13.8519C12.1021 13.5862 12.0848 13.3015 11.946 13.0712C11.8073 12.8407 11.5593 12.6854 11.2658 12.645C11.2451 12.6421 11.2237 12.6411 11.2032 12.6411L9.01699 12.6665C8.99264 12.6667 8.9685 12.6691 8.94457 12.6737C8.6549 12.7274 8.41457 12.8937 8.28554 13.1295C8.1563 13.3654 8.14968 13.6503 8.26717 13.9115L9.55297 16.7707ZM9.00823 13.4972C9.01827 13.4789 9.04113 13.4636 9.07232 13.4538L11.1739 13.4295C11.2058 13.4371 11.2297 13.4507 11.2395 13.4669C11.2517 13.4873 11.2494 13.523 11.2333 13.5623L10.1691 16.1601L9.01677 13.598C8.99862 13.5574 8.99541 13.5205 9.00823 13.4972Z" fill="#26901B"></path>
    <path d="M5.24301 20.5929L8.2081 19.3528C8.65649 19.1656 8.70007 18.8626 8.69793 18.741C8.6958 18.6195 8.64197 18.3181 8.18759 18.1449L5.18127 16.9998C4.90569 16.8947 4.61047 16.9114 4.37164 17.0453C4.1328 17.1792 3.97173 17.4181 3.92986 17.7012C3.92687 17.7211 3.92559 17.7413 3.9258 17.7615L3.95208 19.8697C3.95229 19.8931 3.95486 19.9164 3.95934 19.9395C4.01531 20.2188 4.18749 20.4506 4.43209 20.575C4.56069 20.6405 4.70318 20.6732 4.84887 20.6732C4.98046 20.6735 5.11462 20.6467 5.24301 20.5929ZM4.76855 19.8163L4.74334 17.7897C4.75124 17.7591 4.76513 17.736 4.78222 17.7265C4.80315 17.7148 4.84011 17.717 4.88113 17.7327L7.57492 18.7587L4.91808 19.8699C4.87579 19.8876 4.83776 19.8907 4.81362 19.8783C4.7944 19.8684 4.77859 19.8464 4.76855 19.8163Z" fill="#26901B"></path>
    <path d="M5.22227 16.5425L8.22859 17.6876C8.36445 17.7393 8.48216 17.7591 8.58299 17.7591C8.81947 17.7591 8.96217 17.6501 9.02369 17.5887C9.11128 17.5014 9.29414 17.2515 9.09974 16.8193L7.81394 13.9601C7.69645 13.6989 7.47621 13.509 7.20939 13.4385C6.94236 13.3681 6.65247 13.4237 6.41364 13.591C6.39399 13.6048 6.37562 13.6202 6.35896 13.6371L4.84543 15.1588C4.83091 15.1734 4.81766 15.1891 4.8057 15.2056C4.63566 15.4398 4.58396 15.7203 4.66343 15.9756C4.7429 16.2308 4.94669 16.4374 5.22227 16.5425ZM5.46238 15.6769L6.91715 14.2143C6.94599 14.1989 6.97291 14.1931 6.99384 14.1987C7.02033 14.2057 7.04597 14.2331 7.06434 14.2736L8.21641 16.8358L5.52262 15.8095C5.4816 15.7939 5.45298 15.7712 5.44614 15.7488C5.44038 15.7306 5.44636 15.7047 5.46238 15.6769Z" fill="#26901B"></path>
    <path d="M12.4707 13.8933L11.2832 16.7921C11.1037 17.2304 11.2951 17.4743 11.3857 17.5588C11.447 17.616 11.5856 17.7153 11.8078 17.7153C11.9138 17.7153 12.039 17.6927 12.1836 17.6323L15.1489 16.3922C15.3559 16.3057 15.4509 16.0738 15.361 15.8739C15.2713 15.6745 15.0307 15.5829 14.8237 15.6694L12.1667 16.7803L13.2308 14.1827C13.247 14.1432 13.2705 14.1156 13.2938 14.109C13.3126 14.1034 13.3395 14.1094 13.3683 14.1248L14.0827 14.7853C14.2455 14.9361 14.5042 14.9307 14.6603 14.7737C14.8165 14.6166 14.8111 14.3673 14.6481 14.2167L13.9056 13.5299C13.8904 13.5159 13.8742 13.5032 13.8571 13.4914C13.6142 13.3276 13.323 13.2776 13.0586 13.3542C12.7939 13.4311 12.5796 13.6274 12.4707 13.8933Z" fill="#26901B"></path>
    <path d="M10.2535 20.1795C10.1274 20.1816 9.81491 20.2335 9.63547 20.6716L8.44793 23.5706C8.33899 23.8363 8.35608 24.121 8.49493 24.3513C8.63379 24.5818 8.8818 24.7371 9.17532 24.7773C9.19433 24.78 9.21356 24.7814 9.233 24.7814H9.23791L11.4241 24.7561C11.4485 24.7559 11.4726 24.7534 11.4966 24.7489C11.7864 24.6951 12.0266 24.5289 12.1558 24.293C12.2848 24.0571 12.2914 23.772 12.174 23.511L10.8882 20.6519C10.6938 20.2195 10.3814 20.1775 10.2535 20.1795ZM11.4329 23.9253C11.4229 23.9436 11.4 23.9589 11.3686 23.9686L9.26718 23.9929C9.23514 23.9852 9.21142 23.9719 9.2016 23.9554C9.18942 23.9352 9.19177 23.8996 9.20779 23.86L10.2721 21.2624L11.4243 23.8246C11.4425 23.8652 11.4457 23.9018 11.4329 23.9253Z" fill="#26901B"></path>
    <path d="M9.05756 19.8632C8.96699 19.7786 8.70786 19.6022 8.25947 19.7897L5.29437 21.0296C5.0235 21.1428 4.82654 21.3554 4.75348 21.6125C4.68064 21.8698 4.73831 22.1495 4.91156 22.3798C4.92587 22.3988 4.9419 22.4165 4.95941 22.4326L6.53766 23.892C6.55262 23.9058 6.56885 23.9188 6.58615 23.9304C6.75428 24.0439 6.94547 24.1028 7.13517 24.1028C7.21933 24.1028 7.30329 24.0912 7.38446 24.0675C7.64914 23.9909 7.86341 23.7944 7.97236 23.5287L9.15989 20.6297C9.33955 20.1916 9.14814 19.9477 9.05756 19.8632ZM7.21228 23.2392C7.19626 23.2786 7.17255 23.3062 7.14948 23.313C7.13068 23.3186 7.10355 23.3126 7.07492 23.2971L5.55799 21.8945C5.54196 21.8667 5.5362 21.8405 5.54196 21.8204C5.54901 21.7948 5.57743 21.7701 5.61951 21.7526L8.27656 20.6415L7.21228 23.2392Z" fill="#26901B"></path>
    <path d="M26.3049 7.38099C26.3049 6.7179 25.7892 6.16913 25.1242 6.08735V5.80267C25.7892 5.72089 26.3049 5.17212 26.3049 4.50923C26.3049 3.7899 25.698 3.20467 24.952 3.20467H18.5715L17.6863 0.28368C17.623 0.0748024 17.3962 -0.045086 17.1796 0.0158882C16.9629 0.0770684 16.8386 0.295834 16.9018 0.504712L17.72 3.20467H16.8529C16.107 3.20467 15.5001 3.7899 15.5001 4.50923C15.5001 5.13854 15.9647 5.66527 16.5806 5.78722V6.1028C15.9647 6.22475 15.5001 6.75148 15.5001 7.38099C15.5001 7.96622 15.9019 8.46267 16.4535 8.62726L15.7348 12.515C15.0232 11.9252 14.2179 11.4568 13.3307 11.1188C8.98903 9.46503 4.06181 11.5256 2.34663 15.712C1.51585 17.74 1.55366 19.9586 2.45344 21.9592C3.35301 23.9596 5.00666 25.5025 7.11 26.3038C8.12236 26.6894 9.17787 26.8767 10.2244 26.8767C12.1393 26.8767 14.0218 26.2484 15.5451 25.0594C15.5616 26.1322 16.471 27.0001 17.5874 27.0001H24.2174C25.3438 27.0001 26.2603 26.1163 26.2603 25.0301V13.5793C26.2603 13.5561 26.2581 13.533 26.2541 13.5101L25.3515 8.62726C25.9031 8.46267 26.3049 7.96622 26.3049 7.38099ZM15.5445 19.6836L12.8661 18.6633L15.5231 17.5524C15.5297 17.5495 15.5372 17.547 15.5445 17.5445V19.6836ZM15.5509 13.5101C15.5466 13.533 15.5445 13.5561 15.5445 13.5793V16.75C15.4293 16.7558 15.3123 16.7815 15.198 16.8293L12.2329 18.0692C11.7847 18.2566 11.7411 18.5597 11.7431 18.6812C11.7452 18.8027 11.799 19.1041 12.2536 19.2771L15.2597 20.4223C15.3533 20.4581 15.4492 20.4793 15.5445 20.4869V21.0843C15.4535 20.9984 15.343 20.9282 15.2166 20.88L12.2105 19.7349C11.7561 19.5618 11.5032 19.7462 11.4154 19.8335C11.3278 19.9209 11.1449 20.1707 11.3393 20.6031L12.6251 23.4623C12.7426 23.7233 12.9628 23.9134 13.2297 23.9837C13.3055 24.0037 13.383 24.0136 13.4608 24.0136C13.6569 24.0136 13.8543 23.9511 14.0252 23.8315C14.0451 23.8177 14.0634 23.8022 14.0801 23.7853L15.5445 22.3127V24.0074C13.3871 26.023 10.2135 26.6387 7.41035 25.5709C5.51017 24.847 4.01609 23.453 3.20326 21.6457C2.39042 19.8383 2.35603 17.8337 3.1067 16.0014C4.65632 12.2192 9.10802 10.3576 13.0306 11.8517C13.9867 12.2161 14.8385 12.7473 15.5652 13.4327L15.5509 13.5101ZM14.9765 21.7454L13.5219 23.2081C13.4931 23.2236 13.4659 23.2291 13.4452 23.2238C13.4187 23.2168 13.3931 23.1894 13.3747 23.1488L12.2226 20.5866L14.9164 21.6129C14.9574 21.6284 14.9861 21.6512 14.9929 21.6735C14.9987 21.6918 14.9925 21.7178 14.9765 21.7454ZM24.952 3.9926C25.2475 3.9926 25.4878 4.22434 25.4878 4.50923C25.4878 4.79392 25.2475 5.02566 24.952 5.02566H19.1233L18.8101 3.9926H24.952ZM18.5903 6.07643H17.3979V5.81379H18.5109L18.5903 6.07643ZM16.3174 4.50923C16.3174 4.22434 16.5575 3.9926 16.8529 3.9926H17.9589L18.272 5.02566H16.8529C16.5575 5.02566 16.3174 4.79392 16.3174 4.50923ZM16.3174 7.38099C16.3174 7.0961 16.5575 6.86436 16.8529 6.86436H16.9888H16.9892H16.9899H18.8292L19.1423 7.89742H16.8529C16.5575 7.89742 16.3174 7.66568 16.3174 7.38099ZM25.4434 13.6142V25.0301C25.4434 25.6819 24.8935 26.2121 24.2176 26.2121H17.5874C16.9115 26.2121 16.3616 25.6819 16.3616 25.0301V13.6142L17.2727 8.68555H19.3812L20.0137 10.7733H18.3887C18.1631 10.7733 17.9802 10.9498 17.9802 11.1674C17.9802 11.3849 18.1631 11.5614 18.3887 11.5614H20.2525L21.5447 15.8257C21.5969 15.9977 21.7601 16.1092 21.9367 16.1092C21.9748 16.1092 22.0134 16.1042 22.0517 16.0933C22.2683 16.0323 22.3924 15.8136 22.3292 15.6047L21.104 11.5614H25.064L25.4434 13.6142ZM20.2324 8.68555H24.5323L24.9183 10.7733H20.8652L20.2324 8.68555ZM24.952 7.89742H19.9936L19.5262 6.35494C19.5258 6.35411 19.5256 6.35329 19.5254 6.35247L19.3621 5.81379H24.3071V6.07643H20.9947C20.7691 6.07643 20.586 6.25276 20.586 6.4705C20.586 6.68803 20.7691 6.86436 20.9947 6.86436H24.7151H24.7158H24.7162H24.952C25.2475 6.86436 25.4878 7.0961 25.4878 7.38099C25.4878 7.66588 25.2475 7.89742 24.952 7.89742Z" fill="#26901B"></path>
  </g>
  <defs>
    <clipPath id="clip0_1_2418">
      <rect width="28" height="27" fill="white"></rect>
    </clipPath>
  </defs>
</svg>
